<?xml version="1.0" encoding="utf-8"?>
<!DOCTYPE svg PUBLIC "-//W3C//DTD SVG 1.1//EN" "http://www.w3.org/Graphics/SVG/1.1/DTD/svg11.dtd">
<svg version="1.1" id="图形" xmlns="http://www.w3.org/2000/svg" xmlns:xlink="http://www.w3.org/1999/xlink" x="0px" y="0px" width="1024px" height="1024px" viewBox="0 0 1024 1024" enable-background="new 0 0 1024 1024" xml:space="preserve">
  <path fill="#ffffff" d="M704.158 69.379 543.202 69.379 543.202 235.558l198.652 0 0-128.482C741.854 86.346 724.943 69.379 704.158 69.379L704.158 69.379zM543.202 429.886 543.202 429.886c-6.91 1.854-18.258 4.832-23.146 9.438-0.337 0.28-0.619 0.673-0.955 1.01-0.337-0.337-0.562-0.73-0.899-1.01-4.888-4.607-9.326-7.585-16.18-9.438L502.022 276.74 292.921 276.74 292.921 408.706c0 20.73 16.966 37.696 37.697 37.696l87.529 0c-9.861 5.505-19.075 11.91-26.77 19.101-35.029 32.697-41.349 79.663-14.13 105.056 11.404 10.618 26.854 15.787 43.624 15.787 23.175 0 48.764-9.944 69.128-28.934 11.797-11.011 21.912-25.168 29.102-40.111 7.303 14.943 17.304 29.101 29.213 40.111 20.337 18.989 45.899 28.934 69.101 28.934 16.743 0 32.191-5.169 43.596-15.787 27.248-25.394 20.899-72.359-14.101-105.056-7.696-7.191-16.91-13.596-26.797-19.101l84.045 0c20.785 0 37.696-16.966 37.696-37.696L741.854 276.74 543.202 276.74 543.202 429.886 543.202 429.886zM463.792 529.323 463.792 529.323c-12.5 11.573-28.54 18.54-42.921 18.54-4.326 0-12.275-0.674-17.388-5.449-1.152-1.067-4.663-4.325-4.663-12.416 0-9.102 4.916-23.371 18.765-36.293 16.911-15.786 44.86-27.696 64.943-27.696 7.08 0 9.58 1.573 9.608 1.573C495.421 474.156 487.36 507.302 463.792 529.323L463.792 529.323zM546.685 467.076 546.685 467.076l0.058 0c0.45 0 3.145-1.067 8.987-1.067 20.112 0 48.035 11.91 64.944 27.696 13.877 12.922 18.765 27.191 18.765 36.293 0 8.09-3.483 11.349-4.606 12.416-5.169 4.775-13.09 5.449-17.417 5.449-14.381 0-30.449-6.966-42.921-18.54C551.124 507.47 542.977 474.605 546.685 467.076L546.685 467.076zM502.022 69.379 502.022 69.379 330.618 69.379c-20.731 0-37.697 16.967-37.697 37.696L292.921 235.558l209.102 0L502.023 69.379z" transform="translate(0, 812) scale(1, -1)"/>
</svg>
