<?xml version="1.0" encoding="utf-8"?>
<!DOCTYPE svg PUBLIC "-//W3C//DTD SVG 1.1//EN" "http://www.w3.org/Graphics/SVG/1.1/DTD/svg11.dtd">
<svg version="1.1" id="图形" xmlns="http://www.w3.org/2000/svg" xmlns:xlink="http://www.w3.org/1999/xlink" x="0px" y="0px" width="1024px" height="1024px" viewBox="0 0 1024 1024" enable-background="new 0 0 1024 1024" xml:space="preserve">
  <path fill="#fff" d="M542.919708 95.423695c0-16.416901-13.297864-29.762861-29.694299-29.762861-16.46295 0-29.785374 13.345959-29.785374 29.762861 0 16.418948 13.323447 29.716812 29.785374 29.716812C529.621844 125.140507 542.919708 111.842643 542.919708 95.423695zM614.644263 515.770252c25.589818-21.644973 38.384216-51.866275 38.384216-90.709955 0-22.929222-5.043876-43.703361-15.201214-62.185294-10.662851-19.031449-27.814486-38.70451-51.66059-58.975183-21.599947-17.609053-36.182061-34.440393-43.703361-50.307779-7.497765-16.784268-11.259438-40.584324-11.259438-71.448262 0-6.236028-2.177596-11.280928-6.626931-15.270798-3.988848-3.530406-8.575306-5.27412-13.895475-5.27412-5.732561 0-10.547217 1.743714-14.537088 5.27412-3.989871 3.988848-6.007831 9.03477-6.007831 15.270798 0 31.276331 4.219091 57.095369 12.612249 77.410044 8.369621 21.186532 23.180955 40.356127 44.345997 57.598836 25.176402 21.187555 42.603307 40.58637 52.324716 58.287521 8.392134 15.454994 12.565177 33.06507 12.565177 52.968375-0.457418 22.469758-7.475252 40.814568-21.210068 54.939263-16.278755 17.197684-40.333614 25.818015-72.136947 25.818015-37.534871 0-64.683185-12.839423-81.445964-38.383192-11.44261-18.11559-17.174148-39.48427-17.174148-64.295352 0-6.144954-2.248204-11.418051-6.604418-15.821337-3.989871-4.03592-8.644891-5.962805-13.919011-5.962805-5.777587-0.458441-10.615779 1.056052-14.583137 4.632507-3.966335 3.943822-5.939269 9.44614-5.939269 16.555048 0 43.658336 14.538111 78.512145 43.681872 104.559381 26.483164 23.433712 58.44818 35.082006 95.983051 35.082006l7.29208 0C562.08828 545.533113 591.667969 535.627509 614.644263 515.770252zM512.930697 703.472238c221.912136 0 402.50726-180.547029 402.50726-402.506237 0-221.959208-180.594101-402.50726-402.50726-402.50726-221.959208 0-402.50726 180.548052-402.50726 402.50726C110.423437 522.925209 290.971489 703.472238 512.930697 703.472238zM512.930697 748.184579c-246.998487 0-447.243137-200.221114-447.243137-447.218578 0-246.99951 200.24465-447.266673 447.243137-447.266673 246.952438 0 447.219601 200.267163 447.219601 447.266673C960.150298 547.964488 759.883135 748.184579 512.930697 748.184579" transform="translate(0, 812) scale(1, -1)"/>
</svg>
