<?xml version="1.0" encoding="utf-8"?>
<!DOCTYPE svg PUBLIC "-//W3C//DTD SVG 1.1//EN" "http://www.w3.org/Graphics/SVG/1.1/DTD/svg11.dtd">
<svg version="1.1" id="图形" xmlns="http://www.w3.org/2000/svg" xmlns:xlink="http://www.w3.org/1999/xlink" x="0px" y="0px" width="1024px" height="1024px" viewBox="0 0 1024 1024" enable-background="new 0 0 1024 1024" xml:space="preserve">
  <path fill="#75462f" d="M881.4715 86.2062c0-137.8949-63.2146-137.6143-368.4588-137.6143-305.2237 0-368.4393-0.2806-368.4393 137.6143 0 150.5034 164.9592 450.7853 368.4393 450.7853C716.5082 536.9915 881.4715 236.7086 881.4715 86.2062zM514.09 472.4539c-86.4614 0-156.545-70.5014-156.545-157.4707 0-86.9796 70.0836-157.4707 156.545-157.4707 86.4492 0 156.5348 70.4911 156.5348 157.4707C670.6258 401.9525 600.5391 472.4539 514.09 472.4539zM185.9748 356.5371c64.1761 103.3472 175.1153 213.6044 326.2689 213.6044 151.1148 0 269.2628-119.3206 322.8088-212.6899 27.6726-46.3329 80.812-41.428 103.9739 0 14.8849 31.0016 61.396 290.687-426.7827 290.687C18.5856 647.479 69.5962 379.828 86.9294 357.4505 117.631 310.4991 175.4737 334.4361 185.9748 356.5371z" transform="translate(0, 812) scale(1, -1)"/>
</svg>
