<?xml version="1.0" encoding="utf-8"?>
<!DOCTYPE svg PUBLIC "-//W3C//DTD SVG 1.1//EN" "http://www.w3.org/Graphics/SVG/1.1/DTD/svg11.dtd">
<svg version="1.1" id="图形" xmlns="http://www.w3.org/2000/svg" xmlns:xlink="http://www.w3.org/1999/xlink" x="0px" y="0px" width="1024px" height="1024px" viewBox="0 0 1024 1024" enable-background="new 0 0 1024 1024" xml:space="preserve">
  <path fill="#ffffff" d="M957.351 568.045c-1.467 15.398-14.417 27.137-29.886 27.137h-94.289c-9.283 22.958-31.497 40.41-59.764 40.41h-523.015c-28.267 0-50.481-17.452-59.764-40.41h-94.289c-15.468 0-28.417-11.739-29.886-27.137-3.575-37.505-6.452-106.762 12.462-161.611 14.348-48.033 67.317-107.288 142.258-153.061 17.95-10.964 35.517-21.976 52.464-32.475 9.938-6.373 20.005-12.537 30.177-18.458 23.221-13.939 44.84-26.089 64.15-34.776 20.999-31.37 41.975-59.845 62.115-84.554l1.649-3.193c2.987-5.175 7.245-9.719 12.45-13.646 0.426-0.494 0.847-0.976 1.272-1.466l-157.884 0c-33.69 0-61.001-27.311-61.001-61.001v0c0-0.36 0.020-0.716 0.028-1.075h-0.028v-59.927h570.673v59.927h-0.028c0.006 0.359 0.028 0.714 0.028 1.075v0c0 33.69-27.311 61.001-61.001 61.001h-157.925c6.14 4.249 11.133 9.277 14.501 15.113l3.35 6.508c19.444 23.873 39.663 51.252 59.929 81.354 19.245 8.679 40.777 20.782 63.895 34.66 10.173 5.922 20.239 12.086 30.177 18.458 16.947 10.499 34.513 21.511 52.464 32.475 74.941 45.774 127.91 105.028 142.258 153.061 18.914 54.848 16.037 124.105 12.461 161.61zM291.495 290.247c-5.988 3.485-11.914 7.115-17.765 10.866-9.976 6.181-20.317 12.663-30.883 19.117-44.116 26.946-75.297 61.827-83.743 90.103-11.135 32.288-9.441 73.057-7.336 95.136 0.865 9.064 8.487 15.975 17.593 15.975h34.344l1.245-2.411c9.011-55.409 41.505-139.611 90.913-231.387-1.447 0.854-2.9 1.72-4.367 2.6zM864.706 410.333c-8.446-28.276-39.628-63.157-83.743-90.103-10.567-6.454-20.907-12.937-30.884-19.117-5.85-3.751-11.776-7.38-17.765-10.866-1.174-0.705-2.338-1.398-3.498-2.087 49.99 92.417 82.917 177.355 92.154 233.283h33.48c9.105 0 16.728-6.91 17.593-15.975 2.105-22.077 3.799-62.846-7.336-95.135z" transform="translate(0, 812) scale(1, -1)"/>
</svg>
