<?xml version="1.0" encoding="utf-8"?>
<!DOCTYPE svg PUBLIC "-//W3C//DTD SVG 1.1//EN" "http://www.w3.org/Graphics/SVG/1.1/DTD/svg11.dtd">
<svg version="1.1" id="图形" xmlns="http://www.w3.org/2000/svg" xmlns:xlink="http://www.w3.org/1999/xlink" x="0px" y="0px" width="1024px" height="1024px" viewBox="0 0 1024 1024" enable-background="new 0 0 1024 1024" xml:space="preserve">
  <path fill="#ffffff" d="M890.12736 666.327808 846.738432 666.327808l0 12.89216c0 38.643712-31.466496 70.234112-69.922816 70.234112l-1.031168 0c-38.458368 0-69.922816-31.5904-69.922816-70.234112l0-12.89216L319.162368 666.327808l0 12.89216c0 38.643712-31.465472 70.234112-69.922816 70.234112l-1.062912 0c-38.45632 0-69.922816-31.5904-69.922816-70.234112l0-12.89216-43.295744 0c-38.458368 0-69.922816-31.622144-69.922816-70.206464l0-671.446016c0-38.644736 31.465472-70.23616 69.922816-70.23616l755.16928 0c38.458368 0 69.922816 31.591424 69.922816 70.23616L960.050176 596.121344C960.050176 634.705664 928.585728 666.327808 890.12736 666.327808zM733.830144 679.220992c0 23.222272 18.792448 42.138624 41.954304 42.138624l1.031168 0c23.130112 0 41.954304-18.917376 41.954304-42.138624l0-124.926976c0-23.22432-18.824192-42.139648-41.954304-42.139648l-1.031168 0c-23.161856 0-41.954304 18.915328-41.954304 42.139648L733.830144 679.220992zM206.22336 679.220992c0 23.222272 18.792448 42.138624 41.954304 42.138624l1.062912 0c23.098368 0 41.954304-18.917376 41.954304-42.138624l0-124.926976c0-23.22432-18.855936-42.139648-41.954304-42.139648l-1.062912 0c-23.161856 0-41.954304 18.915328-41.954304 42.139648L206.22336 679.220992zM890.12736-89.404672l-755.16928 0c-7.584768 0-13.984768 6.524928-13.984768 14.08L120.973312 418.350848l783.137792 0 0-493.67552C904.111104-82.879744 897.712128-89.404672 890.12736-89.404672zM223.755264 317.800192l129.024 0 0-63.488-129.024 0 0 63.488ZM449.035264 317.800192l128 0 0-63.488-128 0 0 63.488ZM673.291264 317.800192l125.952 0 0-63.488-125.952 0 0 63.488ZM223.755264 188.776192l129.024 0 0-62.464-129.024 0 0 62.464ZM449.035264 188.776192l128 0 0-62.464-128 0 0 62.464ZM673.291264 188.776192l125.952 0 0-62.464-125.952 0 0 62.464ZM223.755264 62.824192l129.024 0 0-65.536-129.024 0 0 65.536ZM449.035264 62.824192l128 0 0-65.536-128 0 0 65.536ZM673.291264 62.824192l125.952 0 0-65.536-125.952 0 0 65.536Z" transform="translate(0, 812) scale(1, -1)"/>
</svg>
