<?xml version="1.0" encoding="utf-8"?>
<!DOCTYPE svg PUBLIC "-//W3C//DTD SVG 1.1//EN" "http://www.w3.org/Graphics/SVG/1.1/DTD/svg11.dtd">
<svg version="1.1" id="图形" xmlns="http://www.w3.org/2000/svg" xmlns:xlink="http://www.w3.org/1999/xlink" x="0px" y="0px" width="1024px" height="1024px" viewBox="0 0 1024 1024" enable-background="new 0 0 1024 1024" xml:space="preserve">
  <path fill="#ffffff" d="M342.677 216.998M844-73.5 180-73.5c-45.841 0-83 37.159-83 83L97 466l830 0 0-456.5C927-36.341 889.841-73.5 844-73.5zM636.5 341.5c0 22.916-18.58 41.5-41.5 41.5-4.121 0-161.879 0-166 0-22.916 0-41.5-18.584-41.5-41.5 0-22.92 18.584-41.5 41.5-41.5 4.121 0 17.426 0 20.75 0l93.375 0L429 71.75c0-11.462 9.292-20.75 20.75-20.75l41.5 0c11.462 0 20.75 9.288 20.75 20.75l124.5 249C636.5 324.074 636.5 337.379 636.5 341.5zM97 549c0 45.841 37.159 83 83 83l87.187 0c8.611 24.058 31.042 41.5 58.063 41.5 27.021 0 49.451-17.442 58.063-41.5l257.375 0c8.611 24.058 31.042 41.5 58.063 41.5 27.021 0 49.451-17.442 58.063-41.5L844 632c45.841 0 83-37.159 83-83l0-41.5L97 507.5 97 549zM678 549l41.5 0 0 83L678 632 678 549zM304.5 549 346 549l0 83-41.5 0L304.5 549z" transform="translate(0, 812) scale(1, -1)"/>
</svg>
