<?xml version="1.0" encoding="utf-8"?>
<!DOCTYPE svg PUBLIC "-//W3C//DTD SVG 1.1//EN" "http://www.w3.org/Graphics/SVG/1.1/DTD/svg11.dtd">
<svg version="1.1" id="图形" xmlns="http://www.w3.org/2000/svg" xmlns:xlink="http://www.w3.org/1999/xlink" x="0px" y="0px" width="1024px" height="1024px" viewBox="0 0 1024 1024" enable-background="new 0 0 1024 1024" xml:space="preserve">
  <path fill="#ff3300" d="M682.388157 638.776773c-33.056883 53.617152-92.142583 89.550549-159.615301 89.550549-64.940035 0-122.263601-33.219589-155.928329-83.534532C194.871781 613.416176 63.999105 462.854065 63.999105 281.949902l0-40.915875c0-203.612351 165.651784-369.245715 369.242645-369.245715l156.61906 0c203.613374 0 369.262088 165.633365 369.262088 369.245715l0 40.915875C959.121875 453.536862 841.274864 597.596885 682.388157 638.776773zM522.771833 676.22978c74.704422 0 135.472438-60.768015 135.472438-135.471414 0-13.794168-2.14792-27.061332-6.03546-39.579437L393.337925 501.178929c-3.847631 12.518105-6.03546 25.78527-6.03546 39.579437C387.301442 615.461765 448.069457 676.22978 522.771833 676.22978zM907.025357 241.034027c0-174.888146-142.277424-317.185013-317.164546-317.185013L433.24175-76.150986c-174.888146 0-317.16557 142.296867-317.16557 317.185013l0 40.915875c0 142.722562 94.79704 263.609817 224.718041 303.290561-3.5038-14.300704-5.569856-29.128411-5.569856-44.482097 0-13.59053 1.559519-26.798343 4.314259-39.579437l-26.332738 0c-13.691837 0-24.793686-11.100826-24.793686-24.793686 0-13.69286 11.100826-24.813129 24.793686-24.813129l413.238672 0c13.712303 0 24.793686 11.119245 24.793686 24.813129 0 13.691837-11.081383 24.793686-24.793686 24.793686l-20.397562 0c2.755764 12.781094 4.295839 25.988908 4.295839 39.579437 0 12.153808-1.25662 24.023136-3.485381 35.549657 117.078509-46.669926 200.167902-160.830989 200.167902-294.358121L907.025357 241.034027zM610.722954 220.149371c13.71435 0 24.793686 11.120268 24.793686 24.813129 0 13.693884-11.078313 24.793686-24.793686 24.793686l-52.341089 0 49.707099 49.708122c9.683547 9.682523 9.683547 25.381064 0 35.062564-9.6815 9.702989-25.399483 9.702989-35.062564 0l-61.477166-61.476143-61.454654 61.476143c-9.682523 9.702989-25.381064 9.702989-35.063587 0-9.6815-9.6815-9.6815-25.38004 0-35.062564l49.709145-49.708122-52.361555 0c-13.69286 0-24.793686-11.099802-24.793686-24.793686 0-13.69286 11.100826-24.813129 24.793686-24.813129l74.379011 0 0-49.565882-74.379011 0c-13.69286 0-24.793686-11.100826-24.793686-24.793686 0-13.712303 11.100826-24.813129 24.793686-24.813129l74.379011 0 0-66.113767c0-13.694907 11.100826-24.793686 24.792663-24.793686 13.694907 0 24.793686 11.098779 24.793686 24.793686l0 66.113767 74.380034 0c13.71435 0 24.793686 11.100826 24.793686 24.813129 0 13.693884-11.078313 24.793686-24.793686 24.793686l-74.380034 0 0 49.565882L610.722954 220.149371z" transform="translate(0, 812) scale(1, -1)"/>
</svg>
