<?xml version="1.0" encoding="utf-8"?>
<!DOCTYPE svg PUBLIC "-//W3C//DTD SVG 1.1//EN" "http://www.w3.org/Graphics/SVG/1.1/DTD/svg11.dtd">
<svg version="1.1" id="图形" xmlns="http://www.w3.org/2000/svg" xmlns:xlink="http://www.w3.org/1999/xlink" x="0px" y="0px" width="1024px" height="1024px" viewBox="0 0 1024 1024" enable-background="new 0 0 1024 1024" xml:space="preserve">
  <path fill="#ffffff" d="M962.879456 346.446845 567.376727 741.678398c0 0-15.650445 18.454304-39.557948 18.454304-25.944905 0-39.556924-18.481933-39.556924-18.481933L92.758102 346.418192c-10.926864-10.916631-10.926864-28.613688 0-39.529295 10.92584-10.917654 28.631084-10.917654 39.556924 0l26.54047 26.523073L158.855496-70.683461c0-27.207665 28.14399-55.388495 55.387471-55.388495l627.728768 0c25.65531 0 55.387471 27.279297 55.387471 55.388495L897.359206 332.825616l25.944905-25.927509c10.926864-10.926864 28.64848-10.926864 39.575344 0C973.807343 317.814738 973.807343 335.530215 962.879456 346.446845zM601.957313-70.683461 454.256366-70.683461 454.256366 187.793452l147.700947 0L601.957313-70.683461zM841.972758-15.297013 841.972758-15.297013c-0.001023-27.350928-29.100782-55.386448-55.389518-55.386448L657.345808-70.683461 657.345808 243.1799 398.867872 243.1799 398.867872-70.683461 269.630439-70.683461c-29.100782 0-55.387471 27.892257-55.387471 55.386448l0 404.062685L527.801383 702.13273l314.171376-313.957505L841.972758-15.297013z" transform="translate(0, 812) scale(1, -1)"/>
</svg>
