<?xml version="1.0" encoding="utf-8"?>
<!DOCTYPE svg PUBLIC "-//W3C//DTD SVG 1.1//EN" "http://www.w3.org/Graphics/SVG/1.1/DTD/svg11.dtd">
<svg version="1.1" id="图形" xmlns="http://www.w3.org/2000/svg" xmlns:xlink="http://www.w3.org/1999/xlink" x="0px" y="0px" width="1024px" height="1024px" viewBox="0 0 1024 1024" enable-background="new 0 0 1024 1024" xml:space="preserve">
  <path fill="#ffffff" d="M512 812q106.060495 0 198.980752-40.359303t162.375802-109.814849 109.814849-162.845096 40.359303-199.450046-40.359303-198.980752-109.814849-162.375802-162.375802-109.814849-198.980752-40.359303-198.980752 40.359303-162.375802 109.814849-109.814849 162.375802-40.359303 198.980752 40.359303 199.450046 109.814849 162.845096 162.375802 109.814849 198.980752 40.359303zM544.850596-54.31714q28.157654 0 48.337305 20.179652t20.179652 48.337305q0 29.096242-20.179652 49.275894t-48.337305 20.179652-48.337305-20.179652-20.179652-49.275894q0-28.157654 20.179652-48.337305t48.337305-20.179652zM610.551787 224.44363q0 13.140238 19.241063 31.912007t42.705775 45.52154 42.705775 63.35472 19.241063 86.350137q0 32.850596-12.670944 68.516957t-40.359303 65.701192-71.332722 49.275894-105.591201 19.241063q-47.868011 0-82.595784-11.732356t-58.192484-30.973419-38.482126-43.644363-22.526123-49.745188-10.324473-48.806599-2.815765-41.297892q0-24.4033 20.648946-34.727773t45.052246-8.447296 45.052246 14.548121 20.648946 34.258478q0 13.140238 1.877177 30.03483t9.855179 31.442713 25.341888 24.4033 48.337305 9.855179q47.868011 0 76.494959-26.749771t28.626948-63.35472q0-19.710357-9.385885-38.482126t-23.464711-36.135655-30.973419-32.850596-30.973419-28.626948-23.464711-23.464711-9.385885-17.833181l0-74.148488q0-9.385885 19.710357-14.078827t43.644363-4.223648 43.644363 5.631531 19.710357 16.425298l0 32.850596z" transform="translate(0, 812) scale(1, -1)"/>
</svg>
