<?xml version="1.0" encoding="utf-8"?>
<!DOCTYPE svg PUBLIC "-//W3C//DTD SVG 1.1//EN" "http://www.w3.org/Graphics/SVG/1.1/DTD/svg11.dtd">
<svg version="1.1" id="图形" xmlns="http://www.w3.org/2000/svg" xmlns:xlink="http://www.w3.org/1999/xlink" x="0px" y="0px" width="1024px" height="1024px" viewBox="0 0 1024 1024" enable-background="new 0 0 1024 1024" xml:space="preserve">
  <path fill="#ffffff" d="M720.482 95.613h-288.321c-8.848 0-16.018 7.173-16.018 16.018v32.036c0 8.845 7.17 16.018 16.018 16.018h288.321c8.845 0 16.018-7.173 16.018-16.018v-32.036c-0-8.845-7.173-16.018-16.018-16.018zM720.482 255.792h-288.321c-8.848 0-16.018 7.173-16.018 16.018v32.036c0 8.845 7.17 16.018 16.018 16.018h288.321c8.845 0 16.018-7.173 16.018-16.018v-32.036c-0-8.846-7.173-16.018-16.018-16.018zM720.482 415.97h-288.321c-8.848 0-16.018 7.173-16.018 16.018v32.036c0 8.845 7.17 16.018 16.018 16.018h288.321c8.845 0 16.018-7.173 16.018-16.018v-32.036c-0-8.845-7.173-16.018-16.018-16.018zM336.053 95.613h-32.036c-8.848 0-16.018 7.173-16.018 16.018v32.036c0 8.845 7.17 16.018 16.018 16.018h32.036c8.845 0 16.018-7.173 16.018-16.018v-32.036c0-8.845-7.172-16.018-16.018-16.018zM336.053 255.792h-32.036c-8.848 0-16.018 7.173-16.018 16.018v32.036c0 8.845 7.17 16.018 16.018 16.018h32.036c8.845 0 16.018-7.173 16.018-16.018v-32.036c0-8.846-7.172-16.018-16.018-16.018zM336.053 415.97h-32.036c-8.848 0-16.018 7.173-16.018 16.018v32.036c0 8.845 7.17 16.018 16.018 16.018h32.036c8.845 0 16.018-7.173 16.018-16.018v-32.036c0-8.845-7.172-16.018-16.018-16.018z" transform="translate(0, 812) scale(1, -1)"/>
</svg>
